<svg display="none">
    <symbol id="email" fill="white" width="25" height="25" viewBox="0 0 50 35"  xmlns="http://www.w3.org/2000/svg">
      <path fill-rule="evenodd" clip-rule="evenodd" d="M42.0759 0.045151C38.6445 0.396247 35.9359 2.56322 34.8271 5.84477C34.3849 7.1532 34.2727 9.21652 34.5704 10.5616C35.1658 13.2509 37.2299 15.2568 40.0371 15.8737C41.0574 16.098 43.4296 16.0246 44.3966 15.739C44.9554 15.5739 46.0666 15.165 46.1313 15.1006C46.159 15.073 45.5668 13.1608 45.5131 13.1046C45.4929 13.0834 45.212 13.1842 44.8891 13.3286C44.0762 13.6919 43.1443 13.8701 42.0458 13.8722C39.5943 13.8765 37.9034 12.7454 37.1274 10.5816C36.9597 10.1139 36.9279 9.78622 36.9266 8.51579C36.9253 7.12865 36.9471 6.94073 37.1926 6.20551C38.0298 3.7001 40.1859 2.13682 42.7881 2.14842C45.8971 2.16235 47.7713 4.12095 47.5995 7.17667C47.5345 8.33352 47.2544 9.09718 46.6859 9.66747C46.3559 9.9985 46.2074 10.0818 45.9914 10.0571C45.7386 10.0283 45.7144 9.98915 45.6871 9.56615C45.6636 9.20366 46.1815 5.58846 46.4057 4.549C46.4417 4.38203 46.3826 4.29698 46.1453 4.17472C45.0185 3.59421 43.1044 3.45022 41.6585 3.83717C40.3675 4.18271 39.0852 5.25967 38.4852 6.50244C37.2683 9.02285 37.8726 11.5834 39.8332 12.2149C40.7607 12.5136 42.2298 12.1659 43.0421 11.4553L43.39 11.1511L43.709 11.5465C44.1943 12.1481 44.7426 12.345 45.7773 12.2891C47.8311 12.1782 49.3438 10.7332 49.8807 8.36966C50.0375 7.67916 50.0404 5.74696 49.8855 5.10614C49.6901 4.29737 48.9647 2.88139 48.4472 2.29825C46.9705 0.634241 44.5802 -0.21106 42.0759 0.045151ZM3.27365 5.54189C1.60188 6.06834 0.360671 7.46114 0.102415 9.1003C-0.0356601 9.97668 -0.0334116 30.3576 0.104859 31.2143C0.365462 32.8295 1.46674 34.1272 3.10605 34.751L3.66822 34.9649L22.15 34.9935C34.6977 35.0129 40.883 34.9891 41.4141 34.9194C43.5273 34.6422 45.1013 33.0905 45.3711 31.0184C45.4236 30.616 45.4675 27.5434 45.4692 24.1654C45.4717 19.2501 45.4477 18.0513 45.3479 18.0895C45.0646 18.1978 43.7154 18.4468 43.103 18.5037L42.445 18.565L42.4184 24.7841C42.4039 28.2047 42.3571 31.038 42.3146 31.0804C42.2721 31.1227 39.852 28.7812 36.9368 25.8769L31.6363 20.5965L33.6405 18.5966C34.8278 17.4117 35.6024 16.5678 35.541 16.526C35.0656 16.2022 34.647 15.8053 34.1219 15.1806L33.5061 14.448L28.2171 19.7138C25.3081 22.6099 22.8719 24.9795 22.8031 24.9795C22.7344 24.9795 22.5593 24.9166 22.414 24.8396C22.2688 24.7628 18.4537 21.0146 13.9361 16.5103L5.72215 8.32095H18.7875H31.8528L31.9212 7.56976C31.9587 7.15661 32.0522 6.55388 32.1288 6.23025C32.2054 5.90673 32.2687 5.58719 32.2695 5.52017C32.2717 5.33985 3.84766 5.36118 3.27365 5.54189ZM42.4954 6.2019C41.9551 6.34414 41.2416 7.07653 41.0422 7.69338C40.7804 8.50312 40.793 9.30965 41.0718 9.58739C41.516 10.0299 42.2143 9.67819 42.6688 8.7833C42.9136 8.30127 43.2217 6.91988 43.2227 6.29952C43.2231 6.055 43.1109 6.0399 42.4954 6.2019ZM3.03407 20.3524C3.03495 26.139 3.06957 30.9266 3.11113 30.9918C3.16139 31.0706 4.96038 29.3429 8.48796 25.8282L13.7892 20.5463L8.4109 15.189L3.03261 9.83162L3.03407 20.3524ZM11.2331 27.3663L6.58639 31.9937H22.7289H38.8713L34.2052 27.345L29.539 22.6965L27.2135 24.9906C24.4034 27.7629 24.2619 27.8534 22.7367 27.8534C21.1884 27.8534 21.0623 27.7732 18.288 25.0247C17.0189 23.7675 15.9579 22.7389 15.9302 22.7389C15.9026 22.7389 13.7889 24.8212 11.2331 27.3663Z" />
    </symbol>
    <symbol id="email2" fill="white" width="25" height="25" viewBox="0 0 32 32" version="1.1" xmlns="http://www.w3.org/2000/svg" >
      <path d="M26.667 0h-21.333c-2.934 0-5.334 2.4-5.334 5.334v21.332c0 2.936 2.4 5.334 5.334 5.334h21.333c2.934 0 5.333-2.398 5.333-5.334v-21.332c0-2.934-2.399-5.334-5.333-5.334zM26.667 4c0.25 0 0.486 0.073 0.688 0.198l-11.355 9.388-11.355-9.387c0.202-0.125 0.439-0.198 0.689-0.198h21.333zM5.334 28c-0.060 0-0.119-0.005-0.178-0.013l7.051-9.78-0.914-0.914-7.293 7.293v-19.098l12 14.512 12-14.512v19.098l-7.293-7.293-0.914 0.914 7.051 9.78c-0.058 0.008-0.117 0.013-0.177 0.013h-21.333z"></path>
    </symbol>
    <symbol id="iphone" fill="white" width="24" height="24" version="1.1" xmlns="http://www.w3.org/2000/svg" viewBox="0 0 24 24">
      <path  d="M15.984 18v-14.016h-9v14.016h9zM11.484 21.984q0.609 0 1.055-0.445t0.445-1.055-0.445-1.055-1.055-0.445-1.055 0.445-0.445 1.055 0.445 1.055 1.055 0.445zM15.516 0.984q1.031 0 1.758 0.75t0.727 1.781v16.969q0 1.031-0.727 1.781t-1.758 0.75h-8.016q-1.031 0-1.758-0.75t-0.727-1.781v-16.969q0-1.031 0.727-1.781t1.758-0.75h8.016z"></path>
    </symbol>
    <symbol id="icon-linkedin" fill="white" xmlns="http://www.w3.org/2000/svg" width="25" height="25" viewBox="0 0 24 24">
      <path d="M19 0h-14c-2.761 0-5 2.239-5 5v14c0 2.761 2.239 5 5 5h14c2.762 0 5-2.239 5-5v-14c0-2.761-2.238-5-5-5zm-11 19h-3v-11h3v11zm-1.5-12.268c-.966 0-1.75-.79-1.75-1.764s.784-1.764 1.75-1.764 1.75.79 1.75 1.764-.783 1.764-1.75 1.764zm13.5 12.268h-3v-5.604c0-3.368-4-3.113-4 0v5.604h-3v-11h3v1.765c1.396-2.586 7-2.777 7 2.476v6.759z"/>
    </symbol>
    <symbol id="icon-github" xmlns="http://www.w3.org/2000/svg" width="24" height="24" fill="white" viewBox="0 0 24 24">
      <path d="M12 0c-6.626 0-12 5.373-12 12 0 5.302 3.438 9.8 8.207 11.387.599.111.793-.261.793-.577v-2.234c-3.338.726-4.033-1.416-4.033-1.416-.546-1.387-1.333-1.756-1.333-1.756-1.089-.745.083-.729.083-.729 1.205.084 1.839 1.237 1.839 1.237 1.07 1.834 2.807 1.304 3.492.997.107-.775.418-1.305.762-1.604-2.665-.305-5.467-1.334-5.467-5.931 0-1.311.469-2.381 1.236-3.221-.124-.303-.535-1.524.117-3.176 0 0 1.008-.322 3.301 1.23.957-.266 1.983-.399 3.003-.404 1.02.005 2.047.138 3.006.404 2.291-1.552 3.297-1.23 3.297-1.23.653 1.653.242 2.874.118 3.176.77.84 1.235 1.911 1.235 3.221 0 4.609-2.807 5.624-5.479 5.921.43.372.823 1.102.823 2.222v3.293c0 .319.192.694.801.576 4.765-1.589 8.199-6.086 8.199-11.386 0-6.627-5.373-12-12-12z"/>
    </symbol>
</svg>